<svg xmlns="http://www.w3.org/2000/svg" xmlns:xlink="http://www.w3.org/1999/xlink" width="1046" height="347" viewBox="0 0 1046 347">
  <defs>
    <clipPath id="clip-path">
      <rect id="Rectangle_4270" data-name="Rectangle 4270" width="1046" height="347" fill="#f2f2f2"/>
    </clipPath>
  </defs>
  <g id="bg-currencies" transform="translate(-80 -1263)">
    <rect id="Rectangle_4269" data-name="Rectangle 4269" width="1046" height="347" transform="translate(80 1263)" fill="#f7f8f9"/>
    <g id="Mask_Group_2" data-name="Mask Group 2" transform="translate(80 1263)" opacity="0.02" clip-path="url(#clip-path)">
      <path id="Path_16043" data-name="Path 16043" d="M120.434,137.086q.118,21.661-14.827,35.5T64.417,187.955l.123,22.613q.032,5.951-4.462,5.926l-6.623-.036q-4.494-.025-4.527-5.976L48.8,187.631q-22.953-1.792-36.728-11.984T-1.768,152.6q-.054-10,5.239-15.205a17.513,17.513,0,0,1,12.863-5.166,23.819,23.819,0,0,1,13.979,4.242,31.688,31.688,0,0,1,9.4,10.287q3.463,6.089,6.334,12.174A43.508,43.508,0,0,0,52.606,169.2q3.689,4.186,8.183,4.21,15.139.083,15.022-21.34a25.2,25.2,0,0,0-4.337-14.544A34.336,34.336,0,0,0,60.42,127.355,153.488,153.488,0,0,0,45.6,119.776q-8.062-3.615-16.246-7.944A91.028,91.028,0,0,1,14.4,101.99,41.214,41.214,0,0,1,3.317,87.41,48.993,48.993,0,0,1-1.055,66.44q-.109-20,14.01-33.485T50.008,17.923L49.937,4.831Q49.906-.881,54.4-.857l6.86.038q4.494.025,4.525,5.738l.073,13.33q22.717,1.791,36.133,11.385t13.485,22.211q.051,9.283-5.005,14.73t-13.808,5.4a18.364,18.364,0,0,1-14.227-6.5,37.206,37.206,0,0,1-8-14.207,56.669,56.669,0,0,0-6.345-14.2q-4.056-6.449-9.733-6.48a10.91,10.91,0,0,0-9.788,5.183q-3.4,5.218-3.351,14.5a32.716,32.716,0,0,0,4.231,16.8A30.888,30.888,0,0,0,60.27,78.082,109.623,109.623,0,0,0,74.856,85.3Q82.8,88.56,90.743,92.412a86.9,86.9,0,0,1,14.6,8.887,36.348,36.348,0,0,1,10.839,14.1Q120.366,124.47,120.434,137.086Z" transform="translate(111.777 168.213) rotate(30)" fill="#1d1f1d"/>
      <path id="Path_16044" data-name="Path 16044" d="M7.113,19.338V42.079H-6.513V19.338h-8.546V9.53h8.546V2.991h-8.546V-6.817h8.546V-28.789H8.822L21.166-6.817H36.691V-28.789H50.316V-6.817h7.739V2.991H50.316V9.53h7.739v9.808H50.316V42.079H35.694L22.78,19.338ZM17.178,9.53l-3.7-6.539H7.113V9.53Zm13.2,0h6.314V2.991h-9.97Zm6.314,11.154V19.338h-.76Z" transform="translate(1001.822 96.698)" fill="#1d1f1d"/>
      <path id="Path_16045" data-name="Path 16045" d="M89.861,87.706a4.307,4.307,0,0,1,4.84-2.064,3.56,3.56,0,0,1,3.106,3.931q-.5,11.192-9.728,19.733T62.015,117.9q-11.069.035-24.3-8.119a30.746,30.746,0,0,1-20.135,7.314Q9.478,117.12,5.2,112.72A15.11,15.11,0,0,1,.952,101.7,14.14,14.14,0,0,1,5.663,90.81q4.691-4.271,12.486-4.3a43.516,43.516,0,0,1,12,1.7,37.617,37.617,0,0,0,.169-4.1,35.364,35.364,0,0,0-2.919-13.7L6.35,70.475q-3.742.012-3.734-2.51l.022-6.935q.008-2.68,3.75-2.691l14.343-.045q-2.947-4.719-4.575-7.709a43.143,43.143,0,0,1-3.094-7.713,31.4,31.4,0,0,1-1.451-9.452q.048-15.447,12-24.153T54.432.5Q70.023.449,80.762,6.247t10.707,16.2a12.307,12.307,0,0,1-3.144,8.206,10.783,10.783,0,0,1-8.586,3.652,14.977,14.977,0,0,1-8.723-2.337,15.474,15.474,0,0,1-5.127-5.658q-1.7-3.3-3.175-6.61a16.939,16.939,0,0,0-4.036-5.661A9.354,9.354,0,0,0,52.059,11.7q-5.3.017-8.357,5.07T40.62,30.174q-.038,11.979,4.9,28.04l23.074-.073q3.742-.012,3.733,2.668l-.022,6.935q-.008,2.522-3.75,2.534L48.6,70.341A65.511,65.511,0,0,1,49.808,83.1a34.384,34.384,0,0,1-1.9,10.724,63.841,63.841,0,0,0,18.075,3.1,38.922,38.922,0,0,0,14.9-2.963Q87.98,91.022,89.861,87.706ZM16.99,108.112q5.769-.018,9.529-6.02-7.157-4.706-10.431-4.7-5.613.018-5.628,5.062a5.072,5.072,0,0,0,1.858,4.092A6.971,6.971,0,0,0,16.99,108.112Z" transform="matrix(0.966, -0.259, 0.259, 0.966, 543.752, 7.031)" fill="#1d1f1d"/>
    </g>
  </g>
</svg>
